<?xml version="1.0" encoding="UTF-8"?>
<!--Generator: Apple Native CoreSVG 123-->
<!DOCTYPE svg
PUBLIC "-//W3C//DTD SVG 1.1//EN"
       "http://www.w3.org/Graphics/SVG/1.1/DTD/svg11.dtd">
<svg version="1.1" xmlns="http://www.w3.org/2000/svg" xmlns:xlink="http://www.w3.org/1999/xlink" width="3300" height="2200">
 <!--glyph: "uni100373.medium", point size: 100.000000, font version: "Version 15.0d7e11", template writer version: "5"-->
 <g id="Notes">
  <rect height="2200" id="artboard" style="fill:white;opacity:1" width="3300" x="0" y="0"/>
  <line id="" style="fill:none;stroke:black;opacity:1;stroke-width:0.5;" x1="263" x2="3036" y1="292" y2="292"/>
  <text style="stroke:none;fill:black;font-family:-apple-system,&quot;SF Pro Display&quot;,&quot;SF Pro Text&quot;,Helvetica,sans-serif;font-weight:bold;" transform="matrix(1 0 0 1 263 322)">Weight/Scale Variations</text>
  <text style="stroke:none;fill:black;font-family:-apple-system,&quot;SF Pro Display&quot;,&quot;SF Pro Text&quot;,Helvetica,sans-serif;text-anchor:middle;" transform="matrix(1 0 0 1 559.711 322)">Ultralight</text>
  <text style="stroke:none;fill:black;font-family:-apple-system,&quot;SF Pro Display&quot;,&quot;SF Pro Text&quot;,Helvetica,sans-serif;text-anchor:middle;" transform="matrix(1 0 0 1 856.422 322)">Thin</text>
  <text style="stroke:none;fill:black;font-family:-apple-system,&quot;SF Pro Display&quot;,&quot;SF Pro Text&quot;,Helvetica,sans-serif;text-anchor:middle;" transform="matrix(1 0 0 1 1153.13 322)">Light</text>
  <text style="stroke:none;fill:black;font-family:-apple-system,&quot;SF Pro Display&quot;,&quot;SF Pro Text&quot;,Helvetica,sans-serif;text-anchor:middle;" transform="matrix(1 0 0 1 1449.84 322)">Regular</text>
  <text style="stroke:none;fill:black;font-family:-apple-system,&quot;SF Pro Display&quot;,&quot;SF Pro Text&quot;,Helvetica,sans-serif;text-anchor:middle;" transform="matrix(1 0 0 1 1746.56 322)">Medium</text>
  <text style="stroke:none;fill:black;font-family:-apple-system,&quot;SF Pro Display&quot;,&quot;SF Pro Text&quot;,Helvetica,sans-serif;text-anchor:middle;" transform="matrix(1 0 0 1 2043.27 322)">Semibold</text>
  <text style="stroke:none;fill:black;font-family:-apple-system,&quot;SF Pro Display&quot;,&quot;SF Pro Text&quot;,Helvetica,sans-serif;text-anchor:middle;" transform="matrix(1 0 0 1 2339.98 322)">Bold</text>
  <text style="stroke:none;fill:black;font-family:-apple-system,&quot;SF Pro Display&quot;,&quot;SF Pro Text&quot;,Helvetica,sans-serif;text-anchor:middle;" transform="matrix(1 0 0 1 2636.69 322)">Heavy</text>
  <text style="stroke:none;fill:black;font-family:-apple-system,&quot;SF Pro Display&quot;,&quot;SF Pro Text&quot;,Helvetica,sans-serif;text-anchor:middle;" transform="matrix(1 0 0 1 2933.4 322)">Black</text>
  <line id="" style="fill:none;stroke:black;opacity:1;stroke-width:0.5;" x1="263" x2="3036" y1="1903" y2="1903"/>
  <g id="" transform="matrix(1 0 0 1 263 1933)">
   <path d="M 9.24805 0.830078 C 13.5547 0.830078 17.1387 -2.74414 17.1387 -7.05078 C 17.1387 -11.3574 13.5449 -14.9316 9.23828 -14.9316 C 4.94141 -14.9316 1.36719 -11.3574 1.36719 -7.05078 C 1.36719 -2.74414 4.95117 0.830078 9.24805 0.830078 Z M 9.24805 -0.654297 C 5.70312 -0.654297 2.87109 -3.49609 2.87109 -7.05078 C 2.87109 -10.6055 5.69336 -13.4473 9.23828 -13.4473 C 12.793 -13.4473 15.6348 -10.6055 15.6445 -7.05078 C 15.6543 -3.49609 12.8027 -0.654297 9.24805 -0.654297 Z M 9.22852 -3.42773 C 9.69727 -3.42773 9.9707 -3.74023 9.9707 -4.25781 L 9.9707 -6.31836 L 12.1973 -6.31836 C 12.6953 -6.31836 13.0371 -6.57227 13.0371 -7.04102 C 13.0371 -7.51953 12.7148 -7.7832 12.1973 -7.7832 L 9.9707 -7.7832 L 9.9707 -10.0098 C 9.9707 -10.5273 9.69727 -10.8496 9.22852 -10.8496 C 8.75977 -10.8496 8.50586 -10.5078 8.50586 -10.0098 L 8.50586 -7.7832 L 6.29883 -7.7832 C 5.78125 -7.7832 5.44922 -7.51953 5.44922 -7.04102 C 5.44922 -6.57227 5.80078 -6.31836 6.29883 -6.31836 L 8.50586 -6.31836 L 8.50586 -4.25781 C 8.50586 -3.75977 8.75977 -3.42773 9.22852 -3.42773 Z"/>
  </g>
  <g id="" transform="matrix(1 0 0 1 281.506 1933)">
   <path d="M 11.709 2.91016 C 17.1582 2.91016 21.6699 -1.60156 21.6699 -7.05078 C 21.6699 -12.4902 17.1484 -17.0117 11.6992 -17.0117 C 6.25977 -17.0117 1.74805 -12.4902 1.74805 -7.05078 C 1.74805 -1.60156 6.26953 2.91016 11.709 2.91016 Z M 11.709 1.25 C 7.09961 1.25 3.41797 -2.44141 3.41797 -7.05078 C 3.41797 -11.6504 7.08984 -15.3516 11.6992 -15.3516 C 16.3086 -15.3516 20 -11.6504 20.0098 -7.05078 C 20.0195 -2.44141 16.3184 1.25 11.709 1.25 Z M 11.6895 -2.41211 C 12.207 -2.41211 12.5195 -2.77344 12.5195 -3.33984 L 12.5195 -6.23047 L 15.5762 -6.23047 C 16.123 -6.23047 16.5039 -6.51367 16.5039 -7.03125 C 16.5039 -7.55859 16.1426 -7.86133 15.5762 -7.86133 L 12.5195 -7.86133 L 12.5195 -10.9277 C 12.5195 -11.5039 12.207 -11.8555 11.6895 -11.8555 C 11.1719 -11.8555 10.8789 -11.4844 10.8789 -10.9277 L 10.8789 -7.86133 L 7.83203 -7.86133 C 7.26562 -7.86133 6.89453 -7.55859 6.89453 -7.03125 C 6.89453 -6.51367 7.28516 -6.23047 7.83203 -6.23047 L 10.8789 -6.23047 L 10.8789 -3.33984 C 10.8789 -2.79297 11.1719 -2.41211 11.6895 -2.41211 Z"/>
  </g>
  <g id="" transform="matrix(1 0 0 1 304.924 1933)">
   <path d="M 14.9707 5.67383 C 21.9336 5.67383 27.6953 -0.078125 27.6953 -7.04102 C 27.6953 -14.0039 21.9238 -19.7559 14.9609 -19.7559 C 8.00781 -19.7559 2.25586 -14.0039 2.25586 -7.04102 C 2.25586 -0.078125 8.01758 5.67383 14.9707 5.67383 Z M 14.9707 3.85742 C 8.93555 3.85742 4.08203 -1.00586 4.08203 -7.04102 C 4.08203 -13.0762 8.92578 -17.9395 14.9609 -17.9395 C 21.0059 -17.9395 25.8594 -13.0762 25.8691 -7.04102 C 25.8789 -1.00586 21.0156 3.85742 14.9707 3.85742 Z M 14.9512 -1.06445 C 15.5176 -1.06445 15.8691 -1.45508 15.8691 -2.06055 L 15.8691 -6.13281 L 20.1074 -6.13281 C 20.6934 -6.13281 21.1133 -6.46484 21.1133 -7.02148 C 21.1133 -7.59766 20.7227 -7.93945 20.1074 -7.93945 L 15.8691 -7.93945 L 15.8691 -12.1875 C 15.8691 -12.8027 15.5176 -13.1934 14.9512 -13.1934 C 14.3848 -13.1934 14.0625 -12.7832 14.0625 -12.1875 L 14.0625 -7.93945 L 9.83398 -7.93945 C 9.21875 -7.93945 8.80859 -7.59766 8.80859 -7.02148 C 8.80859 -6.46484 9.23828 -6.13281 9.83398 -6.13281 L 14.0625 -6.13281 L 14.0625 -2.06055 C 14.0625 -1.47461 14.3848 -1.06445 14.9512 -1.06445 Z"/>
  </g>
  <text style="stroke:none;fill:black;font-family:-apple-system,&quot;SF Pro Display&quot;,&quot;SF Pro Text&quot;,Helvetica,sans-serif;font-weight:bold;" transform="matrix(1 0 0 1 263 1953)">Design Variations</text>
  <text style="stroke:none;fill:black;font-family:-apple-system,&quot;SF Pro Display&quot;,&quot;SF Pro Text&quot;,Helvetica,sans-serif;" transform="matrix(1 0 0 1 263 1971)">Symbols are supported in up to nine weights and three scales.</text>
  <text style="stroke:none;fill:black;font-family:-apple-system,&quot;SF Pro Display&quot;,&quot;SF Pro Text&quot;,Helvetica,sans-serif;" transform="matrix(1 0 0 1 263 1989)">For optimal layout with text and other symbols, vertically align</text>
  <text style="stroke:none;fill:black;font-family:-apple-system,&quot;SF Pro Display&quot;,&quot;SF Pro Text&quot;,Helvetica,sans-serif;" transform="matrix(1 0 0 1 263 2007)">symbols with the adjacent text.</text>
  <rect height="14" id="" style="fill:#00AEEF;stroke:none;opacity:0.4;" width="3" x="776" y="1919"/>
  <g id="" transform="matrix(1 0 0 1 779 1933)">
   <path d="M 10.5273 0 L 12.373 0 L 7.17773 -14.0918 L 5.43945 -14.0918 L 0.244141 0 L 2.08984 0 L 3.50586 -4.0332 L 9.11133 -4.0332 Z M 6.2793 -11.9531 L 6.33789 -11.9531 L 8.59375 -5.52734 L 4.02344 -5.52734 Z"/>
  </g>
  <rect height="14" id="" style="fill:#00AEEF;stroke:none;opacity:0.4;" width="3" x="791.617" y="1919"/>
  <text style="stroke:none;fill:black;font-family:-apple-system,&quot;SF Pro Display&quot;,&quot;SF Pro Text&quot;,Helvetica,sans-serif;font-weight:bold;" transform="matrix(1 0 0 1 776 1953)">Margins</text>
  <text style="stroke:none;fill:black;font-family:-apple-system,&quot;SF Pro Display&quot;,&quot;SF Pro Text&quot;,Helvetica,sans-serif;" transform="matrix(1 0 0 1 776 1971)">Leading and trailing margins on the left and right side of each symbol</text>
  <text style="stroke:none;fill:black;font-family:-apple-system,&quot;SF Pro Display&quot;,&quot;SF Pro Text&quot;,Helvetica,sans-serif;" transform="matrix(1 0 0 1 776 1989)">can be adjusted by modifying the width of the blue rectangles.</text>
  <text style="stroke:none;fill:black;font-family:-apple-system,&quot;SF Pro Display&quot;,&quot;SF Pro Text&quot;,Helvetica,sans-serif;" transform="matrix(1 0 0 1 776 2007)">Modifications are automatically applied proportionally to all</text>
  <text style="stroke:none;fill:black;font-family:-apple-system,&quot;SF Pro Display&quot;,&quot;SF Pro Text&quot;,Helvetica,sans-serif;" transform="matrix(1 0 0 1 776 2025)">scales and weights.</text>
  <g id="" transform="matrix(1 0 0 1 1289 1933)">
   <path d="M 2.83203 3.11523 L 4.375 4.6582 C 5.22461 5.48828 6.19141 5.41992 7.06055 4.46289 L 17.2754 -6.66016 C 17.7051 -6.36719 18.0957 -6.37695 18.5645 -6.47461 L 19.6094 -6.68945 L 20.3027 -5.99609 L 20.2539 -5.47852 C 20.1855 -4.95117 20.3516 -4.53125 20.8496 -4.0332 L 21.6602 -3.22266 C 22.168 -2.71484 22.8223 -2.68555 23.3008 -3.16406 L 26.5527 -6.41602 C 27.0312 -6.89453 27.0117 -7.54883 26.5039 -8.05664 L 25.6836 -8.87695 C 25.1855 -9.375 24.7754 -9.55078 24.2383 -9.47266 L 23.7109 -9.41406 L 23.0566 -10.0781 L 23.3398 -11.2207 C 23.4863 -11.7871 23.3398 -12.2559 22.7148 -12.8613 L 20.3027 -15.2539 C 16.7578 -18.7793 12.2266 -18.6719 9.11133 -15.5371 C 8.69141 -15.1074 8.64258 -14.5215 8.91602 -14.0918 C 9.15039 -13.7207 9.62891 -13.4961 10.2734 -13.6621 C 11.7871 -14.043 13.3008 -13.9258 14.7852 -12.9199 L 14.1602 -11.3379 C 13.9258 -10.752 13.9453 -10.2734 14.1797 -9.83398 L 3.01758 0.439453 C 2.08008 1.30859 1.97266 2.25586 2.83203 3.11523 Z M 10.6738 -15.1465 C 13.3398 -17.1387 16.6504 -16.8262 19.0527 -14.4141 L 21.6797 -11.8066 C 21.9141 -11.5723 21.9434 -11.3867 21.8848 -11.0938 L 21.5039 -9.53125 L 23.0762 -7.95898 L 24.043 -8.04688 C 24.3262 -8.07617 24.4141 -8.05664 24.6387 -7.83203 L 25.2637 -7.20703 L 22.5098 -4.46289 L 21.8848 -5.07812 C 21.6602 -5.30273 21.6406 -5.40039 21.6699 -5.68359 L 21.7578 -6.64062 L 20.1953 -8.20312 L 18.5742 -7.89062 C 18.291 -7.83203 18.1445 -7.83203 17.9102 -8.07617 L 15.7324 -10.2539 C 15.5078 -10.4883 15.4785 -10.625 15.6055 -10.9473 L 16.5527 -13.2227 C 14.9512 -14.7559 12.8418 -15.6055 10.8008 -14.9512 C 10.7129 -14.9219 10.6445 -14.9414 10.6152 -14.9805 C 10.5859 -15.0293 10.5859 -15.0781 10.6738 -15.1465 Z M 4.10156 2.41211 C 3.61328 1.91406 3.78906 1.61133 4.12109 1.30859 L 15.0781 -8.80859 L 16.3086 -7.57812 L 6.15234 3.34961 C 5.84961 3.68164 5.46875 3.7793 5.06836 3.37891 Z"/>
  </g>
  <text style="stroke:none;fill:black;font-family:-apple-system,&quot;SF Pro Display&quot;,&quot;SF Pro Text&quot;,Helvetica,sans-serif;font-weight:bold;" transform="matrix(1 0 0 1 1289 1953)">Exporting</text>
  <text style="stroke:none;fill:black;font-family:-apple-system,&quot;SF Pro Display&quot;,&quot;SF Pro Text&quot;,Helvetica,sans-serif;" transform="matrix(1 0 0 1 1289 1971)">Symbols should be outlined when exporting to ensure the</text>
  <text style="stroke:none;fill:black;font-family:-apple-system,&quot;SF Pro Display&quot;,&quot;SF Pro Text&quot;,Helvetica,sans-serif;" transform="matrix(1 0 0 1 1289 1989)">design is preserved when submitting to Xcode.</text>
  <text id="template-version" style="stroke:none;fill:black;font-family:-apple-system,&quot;SF Pro Display&quot;,&quot;SF Pro Text&quot;,Helvetica,sans-serif;text-anchor:end;" transform="matrix(1 0 0 1 3036 1933)">Template v.1.0</text>
  <text style="stroke:none;fill:black;font-family:-apple-system,&quot;SF Pro Display&quot;,&quot;SF Pro Text&quot;,Helvetica,sans-serif;text-anchor:end;" transform="matrix(1 0 0 1 3036 1951)">Generated from crop</text>
  <text style="stroke:none;fill:black;font-family:-apple-system,&quot;SF Pro Display&quot;,&quot;SF Pro Text&quot;,Helvetica,sans-serif;text-anchor:end;" transform="matrix(1 0 0 1 3036 1969)">Typeset at 100 points</text>
  <text style="stroke:none;fill:black;font-family:-apple-system,&quot;SF Pro Display&quot;,&quot;SF Pro Text&quot;,Helvetica,sans-serif;" transform="matrix(1 0 0 1 263 726)">Small</text>
  <text style="stroke:none;fill:black;font-family:-apple-system,&quot;SF Pro Display&quot;,&quot;SF Pro Text&quot;,Helvetica,sans-serif;" transform="matrix(1 0 0 1 263 1156)">Medium</text>
  <text style="stroke:none;fill:black;font-family:-apple-system,&quot;SF Pro Display&quot;,&quot;SF Pro Text&quot;,Helvetica,sans-serif;" transform="matrix(1 0 0 1 263 1586)">Large</text>
 </g>
 <g id="Guides">
  <g id="H-reference" style="fill:#27AAE1;stroke:none;" transform="matrix(1 0 0 1 339 696)">
   <path d="M 54.9316 0 L 57.666 0 L 30.5664 -70.459 L 28.0762 -70.459 L 0.976562 0 L 3.66211 0 L 12.9395 -24.4629 L 45.7031 -24.4629 Z M 29.1992 -67.0898 L 29.4434 -67.0898 L 44.8242 -26.709 L 13.8184 -26.709 Z"/>
  </g>
  <line id="Baseline-S" style="fill:none;stroke:#27AAE1;opacity:1;stroke-width:0.577;" x1="263" x2="3036" y1="696" y2="696"/>
  <line id="Capline-S" style="fill:none;stroke:#27AAE1;opacity:1;stroke-width:0.577;" x1="263" x2="3036" y1="625.541" y2="625.541"/>
  <g id="H-reference" style="fill:#27AAE1;stroke:none;" transform="matrix(1 0 0 1 339 1126)">
   <path d="M 54.9316 0 L 57.666 0 L 30.5664 -70.459 L 28.0762 -70.459 L 0.976562 0 L 3.66211 0 L 12.9395 -24.4629 L 45.7031 -24.4629 Z M 29.1992 -67.0898 L 29.4434 -67.0898 L 44.8242 -26.709 L 13.8184 -26.709 Z"/>
  </g>
  <line id="Baseline-M" style="fill:none;stroke:#27AAE1;opacity:1;stroke-width:0.577;" x1="263" x2="3036" y1="1126" y2="1126"/>
  <line id="Capline-M" style="fill:none;stroke:#27AAE1;opacity:1;stroke-width:0.577;" x1="263" x2="3036" y1="1055.54" y2="1055.54"/>
  <g id="H-reference" style="fill:#27AAE1;stroke:none;" transform="matrix(1 0 0 1 339 1556)">
   <path d="M 54.9316 0 L 57.666 0 L 30.5664 -70.459 L 28.0762 -70.459 L 0.976562 0 L 3.66211 0 L 12.9395 -24.4629 L 45.7031 -24.4629 Z M 29.1992 -67.0898 L 29.4434 -67.0898 L 44.8242 -26.709 L 13.8184 -26.709 Z"/>
  </g>
  <line id="Baseline-L" style="fill:none;stroke:#27AAE1;opacity:1;stroke-width:0.577;" x1="263" x2="3036" y1="1556" y2="1556"/>
  <line id="Capline-L" style="fill:none;stroke:#27AAE1;opacity:1;stroke-width:0.577;" x1="263" x2="3036" y1="1485.54" y2="1485.54"/>
  <rect height="119.336" id="left-margin" style="fill:#00AEEF;stroke:none;opacity:0.4;" width="9.96094" x="1386.34" y="1030.79"/>
  <rect height="119.336" id="right-margin" style="fill:#00AEEF;stroke:none;opacity:0.4;" width="9.96094" x="1503.38" y="1030.79"/>
 </g>
 <g id="Symbols">
  <g id="Black-L" transform="matrix(1 0 0 1 2848.15 1556)">
   <path d="M 64.0137 11.5723 L 110.254 11.5723 L 110.254 29.248 C 110.254 35.4492 115.186 39.5996 120.605 39.5996 C 126.172 39.5996 131.104 35.4492 131.104 29.248 L 131.104 11.5723 L 146.875 11.5723 C 153.223 11.5723 157.617 7.08008 157.617 1.5625 C 157.617 -3.95508 153.223 -8.44727 146.875 -8.44727 L 131.104 -8.44727 L 131.104 -54.3945 C 131.104 -70.752 123.242 -78.418 106.494 -78.418 L 60.2539 -78.418 L 60.2539 -96.0449 C 60.2539 -102.295 55.3223 -106.396 49.9023 -106.396 C 44.3359 -106.396 39.4531 -102.295 39.4531 -96.0449 L 39.4531 -78.418 L 23.6328 -78.418 C 17.2852 -78.418 12.8906 -73.877 12.8906 -68.4082 C 12.8906 -62.8418 17.2852 -58.3984 23.6328 -58.3984 L 39.4531 -58.3984 L 39.4531 -12.4023 C 39.4531 3.95508 47.2656 11.5723 64.0137 11.5723 Z M 69.9219 -8.44727 C 63.7695 -8.44727 60.2539 -12.1094 60.2539 -18.1152 L 60.2539 -58.3984 L 100.635 -58.3984 C 106.738 -58.3984 110.254 -54.6875 110.254 -48.6816 L 110.254 -8.44727 Z"/>
  </g>
  <g id="Heavy-L" transform="matrix(1 0 0 1 2552.44 1556)">
   <path d="M 63.2812 9.81445 L 110.156 9.81445 L 110.156 29.4434 C 110.156 34.8145 114.307 38.4277 119.092 38.4277 C 123.926 38.4277 128.125 34.8145 128.125 29.4434 L 128.125 9.81445 L 146.387 9.81445 C 151.855 9.81445 155.615 5.95703 155.615 1.17188 C 155.615 -3.61328 151.855 -7.42188 146.387 -7.42188 L 128.125 -7.42188 L 128.125 -54.1504 C 128.125 -69.4336 120.801 -76.5137 105.225 -76.5137 L 58.3496 -76.5137 L 58.3496 -96.1914 C 58.3496 -101.562 54.1992 -105.176 49.4629 -105.176 C 44.5801 -105.176 40.4297 -101.562 40.4297 -96.1914 L 40.4297 -76.5137 L 22.1191 -76.5137 C 16.6504 -76.5137 12.8906 -72.7051 12.8906 -67.9199 C 12.8906 -63.0859 16.6504 -59.3262 22.1191 -59.3262 L 40.4297 -59.3262 L 40.4297 -12.5488 C 40.4297 2.68555 47.7051 9.81445 63.2812 9.81445 Z M 67.9199 -7.42188 C 61.7188 -7.42188 58.3496 -10.9863 58.3496 -17.041 L 58.3496 -59.3262 L 100.586 -59.3262 C 106.836 -59.3262 110.156 -55.7617 110.156 -49.6582 L 110.156 -7.42188 Z"/>
  </g>
  <g id="Bold-L" transform="matrix(1 0 0 1 2256.85 1556)">
   <path d="M 62.4512 7.76367 L 110.01 7.76367 L 110.01 29.6875 C 110.01 34.1309 113.33 37.1094 117.334 37.1094 C 121.436 37.1094 124.756 34.1309 124.756 29.6875 L 124.756 7.76367 L 145.85 7.76367 C 150.342 7.76367 153.369 4.73633 153.369 0.732422 C 153.369 -3.27148 150.342 -6.29883 145.85 -6.29883 L 124.756 -6.29883 L 124.756 -53.9062 C 124.756 -67.9199 118.115 -74.4141 103.809 -74.4141 L 56.25 -74.4141 L 56.25 -96.3379 C 56.25 -100.781 52.9297 -103.76 48.9258 -103.76 C 44.8242 -103.76 41.5039 -100.781 41.5039 -96.3379 L 41.5039 -74.4141 L 20.4102 -74.4141 C 15.9668 -74.4141 12.8906 -71.3867 12.8906 -67.3828 C 12.8906 -63.3789 15.9668 -60.3516 20.4102 -60.3516 L 41.5039 -60.3516 L 41.5039 -12.7441 C 41.5039 1.31836 48.1445 7.76367 62.4512 7.76367 Z M 65.7227 -6.29883 C 59.375 -6.29883 56.25 -9.7168 56.25 -15.8691 L 56.25 -60.3516 L 100.537 -60.3516 C 106.885 -60.3516 110.01 -56.9336 110.01 -50.7812 L 110.01 -6.29883 Z"/>
  </g>
  <g id="Semibold-L" transform="matrix(1 0 0 1 1960.92 1556)">
   <path d="M 61.8652 6.39648 L 109.912 6.39648 L 109.912 29.834 C 109.912 33.6426 112.646 36.2305 116.162 36.2305 C 119.678 36.2305 122.461 33.6426 122.461 29.834 L 122.461 6.39648 L 145.508 6.39648 C 149.268 6.39648 151.807 3.90625 151.807 0.439453 C 151.807 -3.07617 149.268 -5.51758 145.508 -5.51758 L 122.461 -5.51758 L 122.461 -53.7109 C 122.461 -66.8945 116.26 -72.998 102.832 -72.998 L 54.7852 -72.998 L 54.7852 -96.4355 C 54.7852 -100.195 52.0508 -102.832 48.584 -102.832 C 45.0195 -102.832 42.2363 -100.195 42.2363 -96.4355 L 42.2363 -72.998 L 19.2383 -72.998 C 15.4297 -72.998 12.8906 -70.5078 12.8906 -67.041 C 12.8906 -63.5254 15.4297 -61.084 19.2383 -61.084 L 42.2363 -61.084 L 42.2363 -12.8906 C 42.2363 0.341797 48.4375 6.39648 61.8652 6.39648 Z M 64.209 -5.51758 C 57.8125 -5.51758 54.7852 -8.83789 54.7852 -15.0391 L 54.7852 -61.084 L 100.488 -61.084 C 106.934 -61.084 109.912 -57.7637 109.912 -51.5625 L 109.912 -5.51758 Z"/>
  </g>
  <g id="Medium-L" transform="matrix(1 0 0 1 1664.79 1556)">
   <path d="M 61.4258 5.32227 L 109.863 5.32227 L 109.863 29.9805 C 109.863 33.252 112.158 35.5469 115.234 35.5469 C 118.359 35.5469 120.703 33.252 120.703 29.9805 L 120.703 5.32227 L 145.215 5.32227 C 148.438 5.32227 150.635 3.22266 150.635 0.195312 C 150.635 -2.88086 148.438 -4.93164 145.215 -4.93164 L 120.703 -4.93164 L 120.703 -53.5645 C 120.703 -66.1133 114.844 -71.875 102.1 -71.875 L 53.6621 -71.875 L 53.6621 -96.5332 C 53.6621 -99.8047 51.416 -102.1 48.291 -102.1 C 45.166 -102.1 42.8223 -99.8047 42.8223 -96.5332 L 42.8223 -71.875 L 18.3105 -71.875 C 15.0879 -71.875 12.8906 -69.7754 12.8906 -66.748 C 12.8906 -63.6719 15.0879 -61.6211 18.3105 -61.6211 L 42.8223 -61.6211 L 42.8223 -12.9883 C 42.8223 -0.390625 48.6816 5.32227 61.4258 5.32227 Z M 63.0859 -4.93164 C 56.5918 -4.93164 53.6621 -8.20312 53.6621 -14.4043 L 53.6621 -61.6211 L 100.488 -61.6211 C 106.934 -61.6211 109.863 -58.3496 109.863 -52.1484 L 109.863 -4.93164 Z"/>
  </g>
  <g id="Regular-L" transform="matrix(1 0 0 1 1368.84 1556)">
   <path d="M 60.8398 3.95508 L 109.766 3.95508 L 109.766 30.127 C 109.766 32.7637 111.475 34.6191 114.062 34.6191 C 116.65 34.6191 118.408 32.7637 118.408 30.127 L 118.408 3.95508 L 144.824 3.95508 C 147.412 3.95508 149.121 2.39258 149.121 -0.0976562 C 149.121 -2.63672 147.412 -4.15039 144.824 -4.15039 L 118.408 -4.15039 L 118.408 -53.3691 C 118.408 -65.1367 112.988 -70.459 101.172 -70.459 L 52.2461 -70.459 L 52.2461 -96.6309 C 52.2461 -99.2676 50.5371 -101.123 47.9492 -101.123 C 45.3613 -101.123 43.5547 -99.2676 43.5547 -96.6309 L 43.5547 -70.459 L 17.1875 -70.459 C 14.5996 -70.459 12.8906 -68.8965 12.8906 -66.4062 C 12.8906 -63.8672 14.5996 -62.3535 17.1875 -62.3535 L 43.5547 -62.3535 L 43.5547 -13.1348 C 43.5547 -1.36719 49.0234 3.95508 60.8398 3.95508 Z M 61.5723 -4.15039 C 55.0293 -4.15039 52.2461 -7.32422 52.2461 -13.5742 L 52.2461 -62.3535 L 100.439 -62.3535 C 106.982 -62.3535 109.766 -59.1797 109.766 -52.9297 L 109.766 -4.15039 Z"/>
  </g>
  <g id="Light-L" transform="matrix(1 0 0 1 1073.45 1556)">
   <path d="M 59.3262 1.95312 L 108.594 1.95312 L 108.594 29.7852 C 108.594 31.6895 109.863 33.2031 111.865 33.2031 C 113.867 33.2031 115.234 31.6895 115.234 29.7852 L 115.234 1.95312 L 143.213 1.95312 C 145.117 1.95312 146.484 0.78125 146.484 -1.12305 C 146.484 -3.07617 145.117 -4.24805 143.213 -4.24805 L 115.234 -4.24805 L 115.234 -53.5156 C 115.234 -64.1113 110.693 -68.6035 100 -68.6035 L 50.7324 -68.6035 L 50.7324 -96.3867 C 50.7324 -98.3398 49.4629 -99.8535 47.5098 -99.8535 C 45.5078 -99.8535 44.1406 -98.3398 44.1406 -96.3867 L 44.1406 -68.6035 L 16.1621 -68.6035 C 14.2578 -68.6035 12.8906 -67.4316 12.8906 -65.4785 C 12.8906 -63.5254 14.2578 -62.4023 16.1621 -62.4023 L 44.1406 -62.4023 L 44.1406 -13.0859 C 44.1406 -2.49023 48.6816 1.95312 59.3262 1.95312 Z M 59.9121 -4.24805 C 53.2715 -4.24805 50.7324 -6.98242 50.7324 -13.4277 L 50.7324 -62.4023 L 99.4629 -62.4023 C 106.104 -62.4023 108.594 -59.6191 108.594 -53.1738 L 108.594 -4.24805 Z"/>
  </g>
  <g id="Thin-L" transform="matrix(1 0 0 1 778.493 1556)">
   <path d="M 57.3242 -0.634766 L 107.08 -0.634766 L 107.08 29.2969 C 107.08 30.3223 107.764 31.3477 108.936 31.3477 C 110.156 31.3477 110.986 30.3223 110.986 29.2969 L 110.986 -0.634766 L 141.016 -0.634766 C 142.041 -0.634766 142.969 -1.31836 142.969 -2.49023 C 142.969 -3.66211 142.041 -4.3457 141.016 -4.3457 L 110.986 -4.3457 L 110.986 -53.7109 C 110.986 -62.793 107.617 -66.1621 98.5352 -66.1621 L 48.7793 -66.1621 L 48.7793 -96.0938 C 48.7793 -97.1191 48.0957 -98.1445 46.9238 -98.1445 C 45.7031 -98.1445 44.873 -97.1191 44.873 -96.0938 L 44.873 -66.1621 L 14.8438 -66.1621 C 13.8184 -66.1621 12.8906 -65.4785 12.8906 -64.3066 C 12.8906 -63.1348 13.8184 -62.4512 14.8438 -62.4512 L 44.873 -62.4512 L 44.873 -13.0859 C 44.873 -4.00391 48.2422 -0.634766 57.3242 -0.634766 Z M 57.7148 -4.3457 C 50.9766 -4.3457 48.7793 -6.5918 48.7793 -13.2812 L 48.7793 -62.4512 L 98.1445 -62.4512 C 104.883 -62.4512 107.08 -60.2051 107.08 -53.5156 L 107.08 -4.3457 Z"/>
  </g>
  <g id="Ultralight-L" transform="matrix(1 0 0 1 482.685 1556)">
   <path d="M 56.2988 -2.00195 L 106.299 -2.00195 L 106.299 29.0039 C 106.299 29.5898 106.689 30.3711 107.471 30.3711 C 108.252 30.3711 108.838 29.5898 108.838 29.0039 L 108.838 -2.00195 L 139.893 -2.00195 C 140.479 -2.00195 141.162 -2.44141 141.162 -3.22266 C 141.162 -3.95508 140.479 -4.39453 139.893 -4.39453 L 108.838 -4.39453 L 108.838 -53.8086 C 108.838 -62.1094 106.055 -64.8926 97.7539 -64.8926 L 47.8027 -64.8926 L 47.8027 -95.8984 C 47.8027 -96.4844 47.3633 -97.2656 46.582 -97.2656 C 45.8496 -97.2656 45.2637 -96.4844 45.2637 -95.8984 L 45.2637 -64.8926 L 14.1602 -64.8926 C 13.5742 -64.8926 12.8906 -64.4531 12.8906 -63.6719 C 12.8906 -62.8906 13.5742 -62.4512 14.1602 -62.4512 L 45.2637 -62.4512 L 45.2637 -13.0859 C 45.2637 -4.73633 47.998 -2.00195 56.2988 -2.00195 Z M 56.5918 -4.39453 C 49.8047 -4.39453 47.8027 -6.39648 47.8027 -13.1836 L 47.8027 -62.4512 L 97.5098 -62.4512 C 104.297 -62.4512 106.299 -60.498 106.299 -53.7109 L 106.299 -4.39453 Z"/>
  </g>
  <g id="Black-M" transform="matrix(1 0 0 1 2866.7 1126)">
   <path d="M 49.8047 2.44141 L 84.9609 2.44141 L 84.9609 14.2578 C 84.9609 19.873 89.5996 23.584 94.3359 23.584 C 99.2676 23.584 103.906 19.873 103.906 14.2578 L 103.906 2.44141 L 113.574 2.44141 C 119.336 2.44141 123.438 -1.80664 123.438 -6.73828 C 123.438 -11.6211 119.336 -15.8691 113.574 -15.8691 L 103.906 -15.8691 L 103.906 -50.4883 C 103.906 -64.0137 97.5098 -70.2148 83.5938 -70.2148 L 48.4375 -70.2148 L 48.4375 -82.0312 C 48.4375 -87.6465 43.7988 -91.3574 39.0137 -91.3574 C 34.1309 -91.3574 29.4922 -87.6465 29.4922 -82.0312 L 29.4922 -70.2148 L 19.8242 -70.2148 C 14.0625 -70.2148 9.96094 -65.9668 9.96094 -61.084 C 9.96094 -56.1523 14.0625 -51.9043 19.8242 -51.9043 L 29.4922 -51.9043 L 29.4922 -17.2852 C 29.4922 -3.75977 35.8887 2.44141 49.8047 2.44141 Z M 55.9082 -15.8691 C 51.2695 -15.8691 48.4375 -18.6523 48.4375 -23.3398 L 48.4375 -51.9043 L 77.4902 -51.9043 C 82.1289 -51.9043 84.9609 -49.1211 84.9609 -44.4336 L 84.9609 -15.8691 Z"/>
  </g>
  <g id="Heavy-M" transform="matrix(1 0 0 1 2570.75 1126)">
   <path d="M 49.3652 0.976562 L 85.1562 0.976562 L 85.1562 14.5996 C 85.1562 19.4336 89.0137 22.6562 93.2617 22.6562 C 97.5586 22.6562 101.465 19.4336 101.465 14.5996 L 101.465 0.976562 L 113.477 0.976562 C 118.408 0.976562 121.924 -2.58789 121.924 -6.88477 C 121.924 -11.1816 118.408 -14.7461 113.477 -14.7461 L 101.465 -14.7461 L 101.465 -50.1953 C 101.465 -62.8418 95.459 -68.6523 82.5195 -68.6523 L 46.7285 -68.6523 L 46.7285 -82.2754 C 46.7285 -87.1094 42.8711 -90.332 38.623 -90.332 C 34.3262 -90.332 30.4199 -87.1094 30.4199 -82.2754 L 30.4199 -68.6523 L 18.4082 -68.6523 C 13.4766 -68.6523 9.96094 -65.0879 9.96094 -60.791 C 9.96094 -56.4941 13.4766 -52.9297 18.4082 -52.9297 L 30.4199 -52.9297 L 30.4199 -17.4805 C 30.4199 -4.83398 36.4258 0.976562 49.3652 0.976562 Z M 54.1992 -14.7461 C 49.4629 -14.7461 46.7285 -17.5293 46.7285 -22.2168 L 46.7285 -52.9297 L 77.6855 -52.9297 C 82.4219 -52.9297 85.1562 -50.1465 85.1562 -45.459 L 85.1562 -14.7461 Z"/>
  </g>
  <g id="Bold-M" transform="matrix(1 0 0 1 2274.89 1126)">
   <path d="M 48.877 -0.634766 L 85.3516 -0.634766 L 85.3516 14.9414 C 85.3516 18.9453 88.4277 21.6309 91.9922 21.6309 C 95.6055 21.6309 98.7305 18.9453 98.7305 14.9414 L 98.7305 -0.634766 L 113.379 -0.634766 C 117.432 -0.634766 120.215 -3.4668 120.215 -7.08008 C 120.215 -10.6934 117.432 -13.4766 113.379 -13.4766 L 98.7305 -13.4766 L 98.7305 -49.8535 C 98.7305 -61.4746 93.1641 -66.8945 81.2988 -66.8945 L 44.873 -66.8945 L 44.873 -82.4707 C 44.873 -86.5234 41.7969 -89.209 38.1836 -89.209 C 34.5703 -89.209 31.4453 -86.5234 31.4453 -82.4707 L 31.4453 -66.8945 L 16.8457 -66.8945 C 12.7441 -66.8945 9.96094 -64.0625 9.96094 -60.498 C 9.96094 -56.8848 12.7441 -54.0527 16.8457 -54.0527 L 31.4453 -54.0527 L 31.4453 -17.6758 C 31.4453 -6.05469 37.0117 -0.634766 48.877 -0.634766 Z M 52.2949 -13.4766 C 47.4121 -13.4766 44.873 -16.2109 44.873 -20.9473 L 44.873 -54.0527 L 77.9297 -54.0527 C 82.7637 -54.0527 85.3516 -51.3184 85.3516 -46.6309 L 85.3516 -13.4766 Z"/>
  </g>
  <g id="Semibold-M" transform="matrix(1 0 0 1 1978.74 1126)">
   <path d="M 48.584 -1.75781 L 85.4492 -1.75781 L 85.4492 15.1855 C 85.4492 18.6523 87.9883 20.9473 91.1133 20.9473 C 94.2871 20.9473 96.8262 18.6523 96.8262 15.1855 L 96.8262 -1.75781 L 113.281 -1.75781 C 116.748 -1.75781 119.092 -4.10156 119.092 -7.17773 C 119.092 -10.3516 116.748 -12.5977 113.281 -12.5977 L 96.8262 -12.5977 L 96.8262 -49.6094 C 96.8262 -60.5957 91.6016 -65.6738 80.4688 -65.6738 L 43.5547 -65.6738 L 43.5547 -82.666 C 43.5547 -86.084 41.0156 -88.4277 37.8906 -88.4277 C 34.7168 -88.4277 32.1777 -86.084 32.1777 -82.666 L 32.1777 -65.6738 L 15.7227 -65.6738 C 12.3047 -65.6738 9.96094 -63.3789 9.96094 -60.2539 C 9.96094 -57.1289 12.3047 -54.8828 15.7227 -54.8828 L 32.1777 -54.8828 L 32.1777 -17.8711 C 32.1777 -6.88477 37.4023 -1.75781 48.584 -1.75781 Z M 50.9277 -12.5977 C 46.0449 -12.5977 43.5547 -15.332 43.5547 -20.0684 L 43.5547 -54.8828 L 78.0762 -54.8828 C 83.0078 -54.8828 85.4492 -52.1484 85.4492 -47.4121 L 85.4492 -12.5977 Z"/>
  </g>
  <g id="Medium-M" transform="matrix(1 0 0 1 1682.49 1126)">
   <path d="M 48.3398 -2.63672 L 85.5957 -2.63672 L 85.5957 15.3809 C 85.5957 18.4082 87.6953 20.4102 90.4785 20.4102 C 93.3105 20.4102 95.4102 18.4082 95.4102 15.3809 L 95.4102 -2.63672 L 113.232 -2.63672 C 116.211 -2.63672 118.164 -4.54102 118.164 -7.27539 C 118.164 -10.0586 116.211 -11.9629 113.232 -11.9629 L 95.4102 -11.9629 L 95.4102 -49.4141 C 95.4102 -59.8633 90.4297 -64.7949 79.834 -64.7949 L 42.5781 -64.7949 L 42.5781 -82.7637 C 42.5781 -85.791 40.4785 -87.8418 37.6465 -87.8418 C 34.8633 -87.8418 32.7148 -85.791 32.7148 -82.7637 L 32.7148 -64.7949 L 14.8926 -64.7949 C 11.9141 -64.7949 9.96094 -62.8418 9.96094 -60.1074 C 9.96094 -57.3242 11.9141 -55.4688 14.8926 -55.4688 L 32.7148 -55.4688 L 32.7148 -17.9688 C 32.7148 -7.51953 37.7441 -2.63672 48.3398 -2.63672 Z M 49.9512 -11.9629 C 44.9707 -11.9629 42.5781 -14.6484 42.5781 -19.3848 L 42.5781 -55.4688 L 78.2227 -55.4688 C 83.1543 -55.4688 85.5957 -52.7344 85.5957 -47.998 L 85.5957 -11.9629 Z"/>
  </g>
  <g id="Regular-M" transform="matrix(1 0 0 1 1386.34 1126)">
   <path d="M 47.998 -3.75977 L 85.6934 -3.75977 L 85.6934 15.625 C 85.6934 18.0664 87.2559 19.7266 89.5996 19.7266 C 91.9922 19.7266 93.5547 18.0664 93.5547 15.625 L 93.5547 -3.75977 L 113.135 -3.75977 C 115.527 -3.75977 117.041 -5.12695 117.041 -7.42188 C 117.041 -9.7168 115.527 -11.084 113.135 -11.084 L 93.5547 -11.084 L 93.5547 -49.2188 C 93.5547 -58.9844 88.8672 -63.5742 79.0039 -63.5742 L 41.3086 -63.5742 L 41.3086 -82.959 C 41.3086 -85.4004 39.7461 -87.0605 37.3535 -87.0605 C 35.0098 -87.0605 33.4473 -85.4004 33.4473 -82.959 L 33.4473 -63.5742 L 13.8184 -63.5742 C 11.4746 -63.5742 9.96094 -62.1582 9.96094 -59.9121 C 9.96094 -57.5684 11.4746 -56.25 13.8184 -56.25 L 33.4473 -56.25 L 33.4473 -18.1152 C 33.4473 -8.34961 38.1348 -3.75977 47.998 -3.75977 Z M 48.6328 -11.084 C 43.6035 -11.084 41.3086 -13.7695 41.3086 -18.5059 L 41.3086 -56.25 L 78.3691 -56.25 C 83.3984 -56.25 85.6934 -53.5156 85.6934 -48.7793 L 85.6934 -11.084 Z"/>
  </g>
  <g id="Light-M" transform="matrix(1 0 0 1 1090.83 1126)">
   <path d="M 46.6309 -5.51758 L 84.668 -5.51758 L 84.668 15.2832 C 84.668 17.1387 85.8398 18.457 87.6465 18.457 C 89.4531 18.457 90.7227 17.1387 90.7227 15.2832 L 90.7227 -5.51758 L 111.67 -5.51758 C 113.477 -5.51758 114.648 -6.5918 114.648 -8.34961 C 114.648 -10.1074 113.477 -11.1816 111.67 -11.1816 L 90.7227 -11.1816 L 90.7227 -49.3164 C 90.7227 -58.0566 86.7676 -61.9141 77.9785 -61.9141 L 39.9414 -61.9141 L 39.9414 -82.7148 C 39.9414 -84.5703 38.7695 -85.8887 36.9629 -85.8887 C 35.1562 -85.8887 33.9355 -84.5703 33.9355 -82.7148 L 33.9355 -61.9141 L 12.9395 -61.9141 C 11.1816 -61.9141 9.96094 -60.8398 9.96094 -59.082 C 9.96094 -57.3242 11.1816 -56.25 12.9395 -56.25 L 33.9355 -56.25 L 33.9355 -18.1152 C 33.9355 -9.375 37.8418 -5.51758 46.6309 -5.51758 Z M 47.1191 -11.1816 C 42.041 -11.1816 39.9414 -13.4766 39.9414 -18.4082 L 39.9414 -56.25 L 77.4902 -56.25 C 82.5684 -56.25 84.668 -53.9551 84.668 -49.0234 L 84.668 -11.1816 Z"/>
  </g>
  <g id="Thin-M" transform="matrix(1 0 0 1 795.68 1126)">
   <path d="M 44.8242 -7.86133 L 83.3008 -7.86133 L 83.3008 14.8438 C 83.3008 15.8691 83.9355 16.748 85.0586 16.748 C 86.1328 16.748 86.9141 15.8691 86.9141 14.8438 L 86.9141 -7.86133 L 109.717 -7.86133 C 110.742 -7.86133 111.523 -8.49609 111.523 -9.57031 C 111.523 -10.6445 110.742 -11.2793 109.717 -11.2793 L 86.9141 -11.2793 L 86.9141 -49.5117 C 86.9141 -56.8848 84.0332 -59.7168 76.6602 -59.7168 L 38.2324 -59.7168 L 38.2324 -82.4707 C 38.2324 -83.4473 37.5488 -84.3262 36.4258 -84.3262 C 35.3516 -84.3262 34.5703 -83.4473 34.5703 -82.4707 L 34.5703 -59.7168 L 11.7676 -59.7168 C 10.791 -59.7168 9.96094 -59.082 9.96094 -58.0078 C 9.96094 -56.9336 10.791 -56.2988 11.7676 -56.2988 L 34.5703 -56.2988 L 34.5703 -18.0664 C 34.5703 -10.6934 37.4512 -7.86133 44.8242 -7.86133 Z M 45.166 -11.2793 C 39.9902 -11.2793 38.2324 -13.1348 38.2324 -18.2617 L 38.2324 -56.2988 L 76.3184 -56.2988 C 81.4941 -56.2988 83.3008 -54.4434 83.3008 -49.3164 L 83.3008 -11.2793 Z"/>
  </g>
  <g id="Ultralight-M" transform="matrix(1 0 0 1 499.775 1126)">
   <path d="M 43.8965 -9.0332 L 82.5684 -9.0332 L 82.5684 14.6484 C 82.5684 15.2344 83.0078 15.918 83.6914 15.918 C 84.4238 15.918 84.9609 15.2344 84.9609 14.6484 L 84.9609 -9.0332 L 108.74 -9.0332 C 109.326 -9.0332 109.912 -9.47266 109.912 -10.2051 C 109.912 -10.9375 109.326 -11.3281 108.74 -11.3281 L 84.9609 -11.3281 L 84.9609 -49.6094 C 84.9609 -56.2988 82.6172 -58.5938 75.9766 -58.5938 L 37.3047 -58.5938 L 37.3047 -82.3242 C 37.3047 -82.9102 36.9141 -83.5449 36.1816 -83.5449 C 35.4492 -83.5449 34.9121 -82.9102 34.9121 -82.3242 L 34.9121 -58.5938 L 11.1816 -58.5938 C 10.5469 -58.5938 9.96094 -58.2031 9.96094 -57.4707 C 9.96094 -56.7383 10.5469 -56.3477 11.1816 -56.3477 L 34.9121 -56.3477 L 34.9121 -18.0664 C 34.9121 -11.377 37.2559 -9.0332 43.8965 -9.0332 Z M 44.1406 -11.3281 C 38.916 -11.3281 37.3047 -12.9395 37.3047 -18.1641 L 37.3047 -56.3477 L 75.7324 -56.3477 C 80.957 -56.3477 82.5684 -54.7363 82.5684 -49.4629 L 82.5684 -11.3281 Z"/>
  </g>
  <g id="Black-S" transform="matrix(1 0 0 1 2881.18 696)">
   <path d="M 39.0137 -5.81055 L 66.6016 -5.81055 L 66.6016 3.56445 C 66.6016 7.91016 70.166 10.791 73.877 10.791 C 77.6855 10.791 81.25 7.91016 81.25 3.56445 L 81.25 -5.81055 L 89.0137 -5.81055 C 93.457 -5.81055 96.6309 -9.08203 96.6309 -12.8906 C 96.6309 -16.6992 93.457 -19.9707 89.0137 -19.9707 L 81.25 -19.9707 L 81.25 -47.168 C 81.25 -57.7148 76.2695 -62.5488 65.4297 -62.5488 L 37.8418 -62.5488 L 37.8418 -71.9238 C 37.8418 -76.2695 34.2773 -79.1504 30.5664 -79.1504 C 26.7578 -79.1504 23.1934 -76.2695 23.1934 -71.9238 L 23.1934 -62.5488 L 15.4297 -62.5488 C 10.9863 -62.5488 7.8125 -59.2773 7.8125 -55.4688 C 7.8125 -51.6602 10.9863 -48.3887 15.4297 -48.3887 L 23.1934 -48.3887 L 23.1934 -21.1914 C 23.1934 -10.6445 28.1738 -5.81055 39.0137 -5.81055 Z M 43.7012 -19.9707 C 40.0391 -19.9707 37.8418 -22.168 37.8418 -25.8301 L 37.8418 -48.3887 L 60.7422 -48.3887 C 64.4043 -48.3887 66.6016 -46.1914 66.6016 -42.5293 L 66.6016 -19.9707 Z"/>
  </g>
  <g id="Heavy-S" transform="matrix(1 0 0 1 2584.91 696)">
   <path d="M 38.8184 -6.73828 L 66.8457 -6.73828 L 66.8457 3.85742 C 66.8457 7.71484 69.9219 10.2539 73.2422 10.2539 C 76.6602 10.2539 79.6875 7.71484 79.6875 3.85742 L 79.6875 -6.73828 L 89.1113 -6.73828 C 93.0176 -6.73828 95.752 -9.52148 95.752 -12.8906 C 95.752 -16.3086 93.0176 -19.0918 89.1113 -19.0918 L 79.6875 -19.0918 L 79.6875 -46.9238 C 79.6875 -56.8848 74.9512 -61.5234 64.6973 -61.5234 L 36.7188 -61.5234 L 36.7188 -72.1191 C 36.7188 -75.9277 33.6426 -78.5156 30.3223 -78.5156 C 26.9043 -78.5156 23.8281 -75.9277 23.8281 -72.1191 L 23.8281 -61.5234 L 14.4531 -61.5234 C 10.5469 -61.5234 7.8125 -58.7402 7.8125 -55.3711 C 7.8125 -51.9531 10.5469 -49.1699 14.4531 -49.1699 L 23.8281 -49.1699 L 23.8281 -21.3379 C 23.8281 -11.377 28.6133 -6.73828 38.8184 -6.73828 Z M 42.5293 -19.0918 C 38.8184 -19.0918 36.7188 -21.3379 36.7188 -24.9512 L 36.7188 -49.1699 L 60.9863 -49.1699 C 64.6973 -49.1699 66.8457 -46.9238 66.8457 -43.3105 L 66.8457 -19.0918 Z"/>
  </g>
  <g id="Bold-S" transform="matrix(1 0 0 1 2288.71 696)">
   <path d="M 38.623 -7.76367 L 67.1387 -7.76367 L 67.1387 4.15039 C 67.1387 7.42188 69.6289 9.61914 72.5098 9.61914 C 75.4883 9.61914 77.9785 7.42188 77.9785 4.15039 L 77.9785 -7.76367 L 89.209 -7.76367 C 92.4805 -7.76367 94.7266 -10.0098 94.7266 -12.9395 C 94.7266 -15.8691 92.4805 -18.1152 89.209 -18.1152 L 77.9785 -18.1152 L 77.9785 -46.6309 C 77.9785 -56.0059 73.4375 -60.4004 63.916 -60.4004 L 35.4004 -60.4004 L 35.4004 -72.3145 C 35.4004 -75.5859 32.959 -77.7832 30.0293 -77.7832 C 27.0508 -77.7832 24.5605 -75.5859 24.5605 -72.3145 L 24.5605 -60.4004 L 13.3789 -60.4004 C 10.0586 -60.4004 7.8125 -58.1055 7.8125 -55.2246 C 7.8125 -52.2949 10.0586 -50.0488 13.3789 -50.0488 L 24.5605 -50.0488 L 24.5605 -21.4844 C 24.5605 -12.1582 29.1016 -7.76367 38.623 -7.76367 Z M 41.2598 -18.1152 C 37.5 -18.1152 35.4004 -20.3613 35.4004 -24.0234 L 35.4004 -50.0488 L 61.2793 -50.0488 C 65.0879 -50.0488 67.1387 -47.8027 67.1387 -44.1406 L 67.1387 -18.1152 Z"/>
  </g>
  <g id="Semibold-S" transform="matrix(1 0 0 1 1992.34 696)">
   <path d="M 38.5254 -8.44727 L 67.334 -8.44727 L 67.334 4.39453 C 67.334 7.27539 69.4336 9.17969 72.0215 9.17969 C 74.707 9.17969 76.8066 7.27539 76.8066 4.39453 L 76.8066 -8.44727 L 89.2578 -8.44727 C 92.1387 -8.44727 94.043 -10.3516 94.043 -12.9395 C 94.043 -15.5762 92.1387 -17.4316 89.2578 -17.4316 L 76.8066 -17.4316 L 76.8066 -46.4355 C 76.8066 -55.3711 72.4121 -59.6191 63.3789 -59.6191 L 34.5215 -59.6191 L 34.5215 -72.4609 C 34.5215 -75.3418 32.4219 -77.2461 29.834 -77.2461 C 27.1973 -77.2461 25.0977 -75.3418 25.0977 -72.4609 L 25.0977 -59.6191 L 12.5977 -59.6191 C 9.7168 -59.6191 7.8125 -57.7148 7.8125 -55.127 C 7.8125 -52.4902 9.7168 -50.6348 12.5977 -50.6348 L 25.0977 -50.6348 L 25.0977 -21.6309 C 25.0977 -12.6953 29.4434 -8.44727 38.5254 -8.44727 Z M 40.3809 -17.4316 C 36.5234 -17.4316 34.5215 -19.7266 34.5215 -23.3398 L 34.5215 -50.6348 L 61.4746 -50.6348 C 65.332 -50.6348 67.334 -48.3887 67.334 -44.7266 L 67.334 -17.4316 Z"/>
  </g>
  <g id="Medium-S" transform="matrix(1 0 0 1 1695.9 696)">
   <path d="M 38.3789 -8.98438 L 67.4805 -8.98438 L 67.4805 4.54102 C 67.4805 7.12891 69.2871 8.88672 71.6797 8.88672 C 74.0723 8.88672 75.8789 7.12891 75.8789 4.54102 L 75.8789 -8.98438 L 89.3066 -8.98438 C 91.8945 -8.98438 93.5059 -10.6445 93.5059 -12.9883 C 93.5059 -15.332 91.8945 -16.9434 89.3066 -16.9434 L 75.8789 -16.9434 L 75.8789 -46.2891 C 75.8789 -54.8828 71.6309 -59.0332 62.9395 -59.0332 L 33.8867 -59.0332 L 33.8867 -72.5586 C 33.8867 -75.1465 32.0801 -76.9043 29.6875 -76.9043 C 27.2461 -76.9043 25.4395 -75.1465 25.4395 -72.5586 L 25.4395 -59.0332 L 12.0117 -59.0332 C 9.47266 -59.0332 7.8125 -57.373 7.8125 -55.0293 C 7.8125 -52.6855 9.47266 -51.0742 12.0117 -51.0742 L 25.4395 -51.0742 L 25.4395 -21.7285 C 25.4395 -13.1348 29.6875 -8.98438 38.3789 -8.98438 Z M 39.6973 -16.9434 C 35.8398 -16.9434 33.8867 -19.1895 33.8867 -22.8516 L 33.8867 -51.0742 L 61.6211 -51.0742 C 65.4785 -51.0742 67.4805 -48.8281 67.4805 -45.166 L 67.4805 -16.9434 Z"/>
  </g>
  <g id="Regular-S" transform="matrix(1 0 0 1 1399.53 696)">
   <path d="M 38.2812 -9.7168 L 67.6758 -9.7168 L 67.6758 4.78516 C 67.6758 6.98242 69.043 8.44727 71.1914 8.44727 C 73.291 8.44727 74.707 6.98242 74.707 4.78516 L 74.707 -9.7168 L 89.3555 -9.7168 C 91.5039 -9.7168 92.8223 -10.9863 92.8223 -12.9883 C 92.8223 -15.0391 91.5039 -16.2598 89.3555 -16.2598 L 74.707 -16.2598 L 74.707 -46.0938 C 74.707 -54.248 70.6055 -58.252 62.4023 -58.252 L 33.0078 -58.252 L 33.0078 -72.7051 C 33.0078 -74.9023 31.5918 -76.3672 29.4922 -76.3672 C 27.3438 -76.3672 25.9766 -74.9023 25.9766 -72.7051 L 25.9766 -58.252 L 11.2793 -58.252 C 9.13086 -58.252 7.8125 -56.9824 7.8125 -54.9316 C 7.8125 -52.8809 9.13086 -51.6602 11.2793 -51.6602 L 25.9766 -51.6602 L 25.9766 -21.8262 C 25.9766 -13.6719 30.0293 -9.7168 38.2812 -9.7168 Z M 38.8184 -16.2598 C 34.9121 -16.2598 33.0078 -18.5547 33.0078 -22.2168 L 33.0078 -51.6602 L 61.8164 -51.6602 C 65.7227 -51.6602 67.6758 -49.3652 67.6758 -45.752 L 67.6758 -16.2598 Z"/>
  </g>
  <g id="Light-S" transform="matrix(1 0 0 1 1103.84 696)">
   <path d="M 37.0605 -11.2793 L 66.748 -11.2793 L 66.748 4.49219 C 66.748 6.15234 67.8223 7.32422 69.4336 7.32422 C 71.0449 7.32422 72.168 6.15234 72.168 4.49219 L 72.168 -11.2793 L 88.0859 -11.2793 C 89.6973 -11.2793 90.7715 -12.2559 90.7715 -13.8184 C 90.7715 -15.3809 89.6973 -16.3574 88.0859 -16.3574 L 72.168 -16.3574 L 72.168 -46.2402 C 72.168 -53.4668 68.7988 -56.7871 61.4746 -56.7871 L 31.8359 -56.7871 L 31.8359 -72.5098 C 31.8359 -74.1699 30.7617 -75.3418 29.1504 -75.3418 C 27.4902 -75.3418 26.416 -74.1699 26.416 -72.5098 L 26.416 -56.7871 L 10.498 -56.7871 C 8.88672 -56.7871 7.8125 -55.8105 7.8125 -54.248 C 7.8125 -52.6367 8.88672 -51.709 10.498 -51.709 L 26.416 -51.709 L 26.416 -21.8262 C 26.416 -14.5996 29.7852 -11.2793 37.0605 -11.2793 Z M 37.5 -16.3574 C 33.5449 -16.3574 31.8359 -18.3105 31.8359 -22.1191 L 31.8359 -51.709 L 61.0352 -51.709 C 65.0391 -51.709 66.748 -49.707 66.748 -45.9473 L 66.748 -16.3574 Z"/>
  </g>
  <g id="Thin-S" transform="matrix(1 0 0 1 808.522 696)">
   <path d="M 35.498 -13.3301 L 65.5273 -13.3301 L 65.5273 4.10156 C 65.5273 5.0293 66.1621 5.81055 67.1387 5.81055 C 68.1152 5.81055 68.7988 5.0293 68.7988 4.10156 L 68.7988 -13.3301 L 86.3281 -13.3301 C 87.2559 -13.3301 87.9883 -13.916 87.9883 -14.8926 C 87.9883 -15.8691 87.2559 -16.4551 86.3281 -16.4551 L 68.7988 -16.4551 L 68.7988 -46.3867 C 68.7988 -52.4414 66.3574 -54.834 60.3027 -54.834 L 30.2734 -54.834 L 30.2734 -72.2656 C 30.2734 -73.2422 29.6387 -74.0234 28.6621 -74.0234 C 27.6855 -74.0234 26.9531 -73.2422 26.9531 -72.2656 L 26.9531 -54.834 L 9.47266 -54.834 C 8.54492 -54.834 7.8125 -54.248 7.8125 -53.2715 C 7.8125 -52.2949 8.54492 -51.709 9.47266 -51.709 L 26.9531 -51.709 L 26.9531 -21.7773 C 26.9531 -15.7715 29.4434 -13.3301 35.498 -13.3301 Z M 35.791 -16.4551 C 31.7383 -16.4551 30.2734 -17.9688 30.2734 -21.9727 L 30.2734 -51.709 L 60.0098 -51.709 C 64.0625 -51.709 65.5273 -50.1953 65.5273 -46.1914 L 65.5273 -16.4551 Z"/>
  </g>
  <g id="Ultralight-S" transform="matrix(1 0 0 1 512.519 696)">
   <path d="M 34.668 -14.4043 L 64.8926 -14.4043 L 64.8926 3.90625 C 64.8926 4.49219 65.2832 5.07812 65.9668 5.07812 C 66.6016 5.07812 67.0898 4.49219 67.0898 3.90625 L 67.0898 -14.4043 L 85.4492 -14.4043 C 86.0352 -14.4043 86.5723 -14.7949 86.5723 -15.4297 C 86.5723 -16.1133 86.0352 -16.5039 85.4492 -16.5039 L 67.0898 -16.5039 L 67.0898 -46.4844 C 67.0898 -51.9043 65.1367 -53.8574 59.7168 -53.8574 L 29.4922 -53.8574 L 29.4922 -72.168 C 29.4922 -72.7051 29.1016 -73.291 28.418 -73.291 C 27.7832 -73.291 27.2949 -72.7051 27.2949 -72.168 L 27.2949 -53.8574 L 8.93555 -53.8574 C 8.34961 -53.8574 7.8125 -53.4668 7.8125 -52.7832 C 7.8125 -52.1484 8.34961 -51.7578 8.93555 -51.7578 L 27.2949 -51.7578 L 27.2949 -21.7773 C 27.2949 -16.3574 29.248 -14.4043 34.668 -14.4043 Z M 34.8633 -16.5039 C 30.7617 -16.5039 29.4922 -17.8223 29.4922 -21.875 L 29.4922 -51.7578 L 59.4727 -51.7578 C 63.5742 -51.7578 64.8926 -50.4395 64.8926 -46.3379 L 64.8926 -16.5039 Z"/>
  </g>
 </g>
</svg>
